<?xml version="1.0" standalone="no"?>
<!DOCTYPE svg PUBLIC "-//W3C//DTD SVG 20010904//EN"
 "http://www.w3.org/TR/2001/REC-SVG-20010904/DTD/svg10.dtd">
<svg version="1.0" xmlns="http://www.w3.org/2000/svg"
 width="700.000000pt" height="700.000000pt" viewBox="0 0 700.000000 700.000000"
 preserveAspectRatio="xMidYMid meet">
<metadata>
Created by potrace 1.11, written by Peter Selinger 2001-2013
</metadata>
<g transform="translate(0.000000,700.000000) scale(0.100000,-0.100000)"
fill="#000000" stroke="none">
<path d="M316 6989 c-113 -27 -224 -121 -279 -237 l-32 -67 -3 -3150 c-2
-2359 0 -3164 8 -3205 27 -127 115 -235 238 -293 l67 -32 3185 0 3185 0 67 32
c122 57 211 166 237 291 8 38 11 929 11 3180 0 2617 -2 3135 -14 3178 -33 123
-115 221 -234 277 l-67 32 -3165 2 c-1886 0 -3181 -3 -3204 -8z m4147 -2086
c537 -136 974 -250 970 -253 -5 -4 -451 -98 -993 -210 l-986 -203 -719 172
c-396 95 -847 202 -1002 239 -156 37 -283 70 -283 73 0 9 1993 438 2015 434
11 -3 460 -116 998 -252z m947 -555 l0 -93 -161 -458 -160 -458 195 -299 196
-299 0 -149 0 -150 -32 -11 c-193 -61 -643 -191 -651 -188 -9 3 -57 203 -152
629 l-17 77 -68 -34 -67 -34 -6 -148 c-4 -81 -10 -248 -13 -369 l-7 -222 -36
-11 c-20 -6 -205 -62 -411 -125 -206 -63 -376 -113 -378 -111 -8 7 -26 2194
-19 2201 4 4 134 31 289 60 156 29 335 62 398 74 63 12 124 24 136 27 21 4 21
1 28 -194 3 -109 9 -253 12 -320 l7 -123 68 0 c63 0 69 2 74 23 3 12 39 165
79 341 41 175 76 319 78 321 5 5 581 133 601 134 15 1 17 -10 17 -91z m-2827
-102 c345 -79 631 -146 634 -150 4 -4 12 -356 18 -781 7 -426 13 -777 16 -779
2 -2 48 -13 101 -25 90 -21 97 -24 102 -49 3 -15 7 -137 11 -272 3 -135 8
-266 11 -292 4 -36 3 -48 -8 -48 -7 -1 -500 122 -1095 272 l-1083 273 0 244 0
243 23 -5 c36 -9 187 -20 187 -14 0 3 88 333 195 734 108 400 200 745 206 766
8 32 13 36 32 31 13 -3 305 -70 650 -148z"/>
<path d="M2230 3904 c0 -3 -61 -269 -135 -592 -75 -322 -132 -589 -128 -592 7
-6 377 -90 396 -90 4 0 7 274 7 608 l0 608 -65 32 c-68 33 -75 36 -75 26z"/>
</g>
</svg>
