<svg version="1.0" xmlns="http://www.w3.org/2000/svg" width="933.333" height="933.333" viewBox="0 0 700 700"><path d="M31.6 1.1C20.3 3.8 9.2 13.2 3.7 24.8L.5 31.5l-.3 315C0 582.4.2 662.9 1 667c2.7 12.7 11.5 23.5 23.8 29.3l6.7 3.2h637l6.7-3.2c12.2-5.7 21.1-16.6 23.7-29.1.8-3.8 1.1-92.9 1.1-318 0-261.7-.2-313.5-1.4-317.8-3.3-12.3-11.5-22.1-23.4-27.7L668.5.5 352 .3C163.4.3 33.9.6 31.6 1.1zm414.7 208.6c53.7 13.6 97.4 25 97 25.3-.5.4-45.1 9.8-99.3 21l-98.6 20.3-71.9-17.2c-39.6-9.5-84.7-20.2-100.2-23.9-15.6-3.7-28.3-7-28.3-7.3 0-.9 199.3-43.8 201.5-43.4 1.1.3 46 11.6 99.8 25.2zm94.7 55.5v9.3l-16.1 45.8-16 45.8 19.5 29.9 19.6 29.9v29.9l-3.2 1.1c-19.3 6.1-64.3 19.1-65.1 18.8-.9-.3-5.7-20.3-15.2-62.9l-1.7-7.7-6.8 3.4-6.7 3.4-.6 14.8c-.4 8.1-1 24.8-1.3 36.9l-.7 22.2-3.6 1.1c-2 .6-20.5 6.2-41.1 12.5s-37.6 11.3-37.8 11.1c-.8-.7-2.6-219.4-1.9-220.1.4-.4 13.4-3.1 28.9-6 15.6-2.9 33.5-6.2 39.8-7.4 6.3-1.2 12.4-2.4 13.6-2.7 2.1-.4 2.1-.1 2.8 19.4.3 10.9.9 25.3 1.2 32l.7 12.3h6.8c6.3 0 6.9-.2 7.4-2.3.3-1.2 3.9-16.5 7.9-34.1 4.1-17.5 7.6-31.9 7.8-32.1.5-.5 58.1-13.3 60.1-13.4 1.5-.1 1.7 1 1.7 9.1zm-282.7 10.2c34.5 7.9 63.1 14.6 63.4 15 .4.4 1.2 35.6 1.8 78.1.7 42.6 1.3 77.7 1.6 77.9.2.2 4.8 1.3 10.1 2.5 9 2.1 9.7 2.4 10.2 4.9.3 1.5.7 13.7 1.1 27.2.3 13.5.8 26.6 1.1 29.2.4 3.6.3 4.8-.8 4.8-.7.1-50-12.2-109.5-27.2L129 460.5v-48.7l2.3.5c3.6.9 18.7 2 18.7 1.4 0-.3 8.8-33.3 19.5-73.4 10.8-40 20-74.5 20.6-76.6.8-3.2 1.3-3.6 3.2-3.1 1.3.3 30.5 7 65 14.8z"/><path d="M223 309.6c0 .3-6.1 26.9-13.5 59.2-7.5 32.2-13.2 58.9-12.8 59.2.7.6 37.7 9 39.6 9 .4 0 .7-27.4.7-60.8v-60.8l-6.5-3.2c-6.8-3.3-7.5-3.6-7.5-2.6z"/></svg>